HIERARCHY
ROOT root
{
	OFFSET 0.000000 0.000000 0.000000
	CHANNELS 6 Xposition Yposition Zposition Zrotation Yrotation Xrotation
	JOINT lhip
	{
		OFFSET 0.058581 -0.082280 -0.017664
		CHANNELS 3 Zrotation Yrotation Xrotation
		JOINT lknee
		{
			OFFSET 0.043451 -0.386469 0.008037
			CHANNELS 3 Zrotation Yrotation Xrotation
			JOINT lankle
			{
				OFFSET -0.014790 -0.426874 -0.037428
				CHANNELS 3 Zrotation Yrotation Xrotation
				JOINT ltoe
				{
					OFFSET 0.041054 -0.060286 0.122042
					CHANNELS 3 Zrotation Yrotation Xrotation
					End Site
					{
						OFFSET 0.000000 0.000000 0.000000
					}
				}
			}
		}
	}
	JOINT rhip
	{
		OFFSET -0.060310 -0.090513 -0.013543
		CHANNELS 3 Zrotation Yrotation Xrotation
		JOINT rknee
		{
			OFFSET -0.043257 -0.383688 -0.004843
			CHANNELS 3 Zrotation Yrotation Xrotation
			JOINT rankle
			{
				OFFSET 0.019056 -0.420046 -0.034562
				CHANNELS 3 Zrotation Yrotation Xrotation
				JOINT rtoe
				{
					OFFSET -0.034840 -0.062106 0.130323
					CHANNELS 3 Zrotation Yrotation Xrotation
					End Site
					{
						OFFSET 0.000000 0.000000 0.000000
					}
				}
			}
		}
	}
	JOINT lowerback
	{
		OFFSET 0.004439 0.124404 -0.038385
		CHANNELS 3 Zrotation Yrotation Xrotation
		JOINT upperback
		{
			OFFSET 0.004488 0.137956 0.026820
			CHANNELS 3 Zrotation Yrotation Xrotation
			JOINT chest
			{
				OFFSET -0.002265 0.056032 0.002855
				CHANNELS 3 Zrotation Yrotation Xrotation
				JOINT lowerneck
				{
					OFFSET -0.013390 0.211636 -0.033468
					CHANNELS 3 Zrotation Yrotation Xrotation
					JOINT upperneck
					{
						OFFSET 0.010113 0.088937 0.050410
						CHANNELS 3 Zrotation Yrotation Xrotation
						End Site
						{
							OFFSET 0.000000 0.000000 0.000000
						}
					}
				}
				JOINT lclavicle
				{
					OFFSET 0.071702 0.114000 -0.018898
					CHANNELS 3 Zrotation Yrotation Xrotation
					JOINT lshoulder
					{
						OFFSET 0.122921 0.045205 -0.019046
						CHANNELS 3 Zrotation Yrotation Xrotation
						JOINT lelbow
						{
							OFFSET 0.255332 -0.015649 -0.022946
							CHANNELS 3 Zrotation Yrotation Xrotation
							JOINT lwrist
							{
								OFFSET 0.265709 0.012698 -0.007375
								CHANNELS 3 Zrotation Yrotation Xrotation
								End Site
								{
									OFFSET 0.000000 0.000000 0.000000
								}
							}
						}
					}
				}
				JOINT rclavicle
				{
					OFFSET -0.082954 0.112472 -0.023707
					CHANNELS 3 Zrotation Yrotation Xrotation
					JOINT rshoulder
					{
						OFFSET -0.113228 0.046853 -0.008472
						CHANNELS 3 Zrotation Yrotation Xrotation
						JOINT relbow
						{
							OFFSET -0.260127 -0.014369 -0.031269
							CHANNELS 3 Zrotation Yrotation Xrotation
							JOINT rwrist
							{
								OFFSET -0.269108 0.006794 -0.006027
								CHANNELS 3 Zrotation Yrotation Xrotation
								End Site
								{
									OFFSET 0.000000 0.000000 0.000000
								}
							}
						}
					}
				}
			}
		}
	}
}
MOTION
Frames: 13
Frame Time: 0.033333
-1.572781 3.087239 0.982760 34.576215 -0.807626 80.172408 6.233886 4.687867 6.022054 -4.617585 4.167053 9.504340 1.075938 15.261355 -14.961094 0.000000 -0.000000 0.000000 -1.234349 -2.530264 0.795325 3.046857 -5.234628 18.348155 1.960336 -8.762117 -16.163965 0.000000 -0.000000 0.000000 1.443283 -1.646075 6.941983 2.175053 -1.755966 2.876972 0.249925 -2.315247 5.634065 2.927560 2.167212 0.350067 -3.334246 0.945266 17.706711 -24.918809 6.934185 2.112381 -62.866501 -7.315331 7.994779 10.859827 -25.986848 4.016552 -3.287821 -5.254353 -12.024074 23.964905 -2.062222 0.361301 54.391240 7.096628 12.833934 -11.734327 23.310406 -5.786903 5.496817 3.719437 -11.132573 
-1.570821 3.087662 0.982699 34.586600 -0.764262 80.278248 6.083622 4.992849 6.652807 -4.496404 4.279208 8.162292 1.244004 15.119784 -14.790921 0.000000 -0.000000 0.000000 -1.275961 -2.313843 0.786757 3.106024 -5.145176 18.206366 2.258496 -9.072435 -16.180766 0.000000 -0.000000 0.000000 1.381232 -1.674969 6.625302 2.284033 -1.795681 2.978822 0.344928 -2.450098 5.711352 3.214786 2.165711 0.427089 -3.320753 0.835182 17.914875 -24.759791 7.026866 2.227315 -63.216128 -7.164813 7.844874 10.681851 -24.095714 3.965766 -3.694355 -5.311932 -11.720754 23.984291 -2.291383 0.344191 54.521646 7.265553 12.787210 -11.710485 23.020782 -6.044533 5.510666 3.764288 -11.067597 
-1.568776 3.088619 0.982637 34.752151 -0.622081 80.413069 5.932859 5.140121 7.214870 -4.289673 4.032637 6.731390 1.322032 15.060497 -14.620204 0.000000 -0.000000 0.000000 -1.229859 -2.327972 0.709774 3.037442 -5.177534 18.109904 2.342538 -9.155627 -16.128548 0.000000 -0.000000 0.000000 1.471628 -1.805434 6.465987 2.334459 -1.880641 2.962984 0.380499 -2.540645 5.723791 3.400093 2.136705 0.432732 -3.305449 0.716055 18.006511 -24.773678 7.238453 2.140740 -63.296925 -6.954717 7.685405 10.428070 -22.539686 3.943780 -3.973176 -5.256481 -11.402014 24.073809 -2.506094 0.258198 54.691767 7.260201 12.786189 -11.771099 22.773159 -6.284453 5.509490 3.802025 -11.143231 
-1.565996 3.089764 0.982610 34.847038 -0.467032 80.606680 5.758895 5.453086 8.017529 -4.097575 3.520552 4.751410 1.464610 15.076113 -14.265123 0.000000 -0.000000 0.000000 -1.198210 -2.301896 0.543494 2.928912 -5.214185 18.059069 2.455179 -9.226906 -16.038167 0.000000 -0.000000 0.000000 1.524231 -1.940886 6.213837 2.359025 -1.851008 2.988919 0.391373 -2.536224 5.714976 3.639665 2.047558 0.488820 -3.259582 0.462582 18.078725 -24.805070 7.538237 2.117630 -63.314345 -6.757236 7.521026 10.291456 -21.308887 3.768008 -4.221046 -5.188153 -11.115046 24.181805 -2.720079 0.189733 54.978750 7.148863 12.791402 -11.829807 22.429207 -6.536537 5.616347 3.798053 -11.149691 
-1.564202 3.090183 0.982686 34.712875 -0.438747 80.733390 5.667171 5.775017 8.577354 -4.083709 3.340956 3.476920 1.540565 15.067313 -13.902183 0.000000 -0.000000 0.000000 -1.216912 -2.204544 0.452324 2.845234 -5.161351 18.000658 2.514096 -9.243045 -15.923700 0.000000 -0.000000 0.000000 1.461638 -1.955720 5.987358 2.352401 -1.727458 3.074480 0.398705 -2.479500 5.707580 3.759023 2.013518 0.565119 -3.220741 0.360232 18.100705 -24.825762 7.749842 2.171946 -63.286015 -6.656210 7.442643 10.298008 -21.018370 3.621415 -4.299152 -5.188993 -11.119052 24.282877 -2.799853 0.214779 55.126747 7.115265 12.846747 -11.809494 22.170016 -6.566358 5.679076 3.749164 -11.099365 
-1.561923 3.091363 0.982943 34.794917 -0.339233 80.907378 5.588938 6.046331 9.053568 -4.073352 3.204467 2.105226 1.547986 14.902357 -13.378597 0.000000 -0.000000 0.000000 -1.215079 -2.222912 0.382162 2.723310 -5.186360 17.779153 2.620703 -9.300310 -15.718547 0.000000 -0.000000 0.000000 1.424288 -2.017440 5.826502 2.340351 -1.686464 3.079939 0.389980 -2.474293 5.718780 3.871480 1.956291 0.589570 -3.174045 0.228829 18.153870 -24.789027 8.036143 2.234782 -63.329400 -6.620345 7.393055 10.382633 -21.000649 3.455634 -4.363710 -5.264639 -11.255645 24.349544 -2.880104 0.162363 55.380633 7.105235 12.966487 -11.729604 21.785823 -6.504597 5.731856 3.731206 -10.988238 
-1.559680 3.092351 0.983346 34.851680 -0.243534 81.059428 5.546522 6.250463 9.526612 -4.105102 3.136114 0.828696 1.491593 14.706271 -12.862462 0.000000 -0.000000 0.000000 -1.234092 -2.227836 0.351866 2.628022 -5.296957 17.542820 2.715349 -9.282028 -15.523355 0.000000 -0.000000 0.000000 1.344650 -2.020748 5.638706 2.321545 -1.620922 3.151846 0.398909 -2.440625 5.723981 3.925058 1.896975 0.637330 -3.120441 0.043277 18.146932 -24.699766 8.247243 2.302979 -63.397963 -6.648003 7.399923 10.515989 -21.332604 3.333256 -4.466317 -5.344551 -11.453563 24.429660 -2.988970 0.152052 55.641790 7.085699 13.020884 -11.733608 21.546904 -6.474766 5.835076 3.709881 -10.908280 
-1.557423 3.093702 0.983641 34.957770 -0.151194 81.242704 5.485491 6.452650 9.836967 -4.122936 3.025863 -0.250306 1.470500 14.496578 -12.418413 0.000000 -0.000000 0.000000 -1.277879 -2.333489 0.282460 2.541406 -5.337333 17.299114 2.818347 -9.256544 -15.335181 0.000000 -0.000000 0.000000 1.290965 -1.992273 5.529543 2.290265 -1.561410 3.128845 0.381180 -2.369171 5.667372 3.957901 1.776945 0.715776 -3.026190 -0.198694 18.207348 -24.626651 8.427714 2.239761 -63.428893 -6.759149 7.436046 10.589413 -21.744248 3.212043 -4.356253 -5.333378 -11.491626 24.504324 -3.125927 0.151646 55.880583 6.950220 13.052455 -11.767717 21.479708 -6.564281 5.911796 3.686831 -10.880108 
-1.555013 3.094831 0.983813 34.957153 -0.055220 81.358933 5.466772 6.720553 10.324084 -4.180291 2.944768 -1.440174 1.454007 14.324152 -11.966918 0.000000 -0.000000 0.000000 -1.309984 -2.358792 0.280581 2.439268 -5.399557 17.082083 2.926580 -9.223670 -15.208398 0.000000 -0.000000 0.000000 1.267450 -1.984302 5.423283 2.222525 -1.442735 3.161806 0.328381 -2.270691 5.627008 3.972921 1.661500 0.822907 -2.931298 -0.413276 18.257755 -24.584378 8.544182 2.197100 -63.414673 -6.945216 7.471005 10.748618 -22.359308 2.993355 -4.203089 -5.324303 -11.554219 24.517007 -3.171523 0.162986 56.143426 6.797889 13.102446 -11.789482 21.496778 -6.617391 5.971365 3.670434 -10.857652 
-1.551944 3.096503 0.983876 35.070270 0.090388 81.493309 5.396963 6.903004 10.775083 -4.186655 2.911813 -2.670954 1.448329 14.088038 -11.496121 0.000000 -0.000000 0.000000 -1.353849 -2.453333 0.209013 2.308875 -5.567385 16.959667 3.027234 -9.170903 -15.037927 0.000000 -0.000000 0.000000 1.252880 -2.012744 5.323087 2.153970 -1.374303 3.177548 0.264300 -2.201534 5.598385 3.927871 1.545033 0.949189 -2.873485 -0.582252 18.336912 -24.527510 8.579301 2.152821 -63.446391 -7.258887 7.555830 11.061955 -23.296812 2.759622 -4.103614 -5.376171 -11.699477 24.490141 -3.229476 0.168514 56.405565 6.742763 13.157646 -11.866550 21.606974 -6.612799 6.007998 3.690395 -10.735885 
-1.549669 3.097660 0.983860 35.106278 0.237385 81.567872 5.407780 6.974497 11.061090 -4.220885 2.894179 -3.416961 1.473959 13.964306 -11.217582 0.000000 -0.000000 0.000000 -1.306087 -2.517529 0.196156 2.191532 -5.628897 16.831004 3.075753 -9.236702 -14.804870 0.000000 -0.000000 0.000000 1.230384 -2.016438 5.259749 2.126192 -1.333909 3.218723 0.242523 -2.158844 5.565947 3.817654 1.508923 1.058546 -2.835464 -0.650955 18.357226 -24.448092 8.512036 2.172057 -63.465408 -7.518439 7.645095 11.321507 -24.116851 2.587171 -3.945424 -5.318763 -11.848398 24.494925 -3.186555 0.228781 56.498102 6.748916 13.178448 -11.982678 21.764068 -6.679404 6.051207 3.647040 -10.727453 
-1.547676 3.098930 0.983792 35.272379 0.395448 81.607333 5.437220 6.957374 11.189679 -4.254617 2.854000 -3.852565 1.497270 13.821914 -11.043568 0.000000 -0.000000 0.000000 -1.300468 -2.668505 0.170248 2.134177 -5.763523 16.772980 3.101049 -9.258351 -14.563505 0.000000 -0.000000 0.000000 1.169443 -2.035013 5.275046 2.105310 -1.373941 3.227507 0.242408 -2.165054 5.543599 3.689952 1.439327 1.138059 -2.798343 -0.744215 18.377658 -24.308859 8.355417 2.222536 -63.482205 -7.818289 7.728187 11.559897 -24.932914 2.411239 -3.707300 -5.200607 -12.000209 24.441279 -3.103635 0.197077 56.605370 6.761164 13.155023 -12.056495 21.969879 -6.748768 6.038066 3.630403 -10.739915 
-1.545893 3.099976 0.983801 35.302608 0.521889 81.639966 5.476851 6.979475 11.358670 -4.335208 2.876820 -4.279611 1.523999 13.714407 -10.897808 0.000000 -0.000000 0.000000 -1.287207 -2.732273 0.146851 2.053540 -5.874037 16.702256 3.131586 -9.279667 -14.381793 0.000000 -0.000000 0.000000 1.057569 -2.018398 5.307456 2.077239 -1.360082 3.216023 0.238472 -2.155975 5.508359 3.582565 1.431257 1.237187 -2.808206 -0.797528 18.421955 -24.157739 8.256939 2.226373 -63.406993 -8.072268 7.839475 11.717329 -25.879585 2.413843 -3.696970 -5.308933 -12.213546 24.405961 -3.041492 0.179460 56.694908 6.807522 13.191284 -12.142785 22.200207 -6.773308 6.055715 3.660587 -10.770947 
